<svg
   viewBox="0 0 327.67999 327.67999"
   xmlns="http://www.w3.org/2000/svg">
  <path
     style="fill:currentColor"
     d="m 185.65028,219.96011 c -20.95129,-3.17097 -38.38224,-18.94134 -44.2283,-40.01486 l -0.83009,-2.99224 -0.0276,21.29095 -0.0276,21.29094 h -9.58409 -9.58407 l -2.46175,-3.3375 C 97.178223,186.73934 57.10139,186.84929 35.010049,216.42757 l -2.320791,3.10733 h -10.29446 c -5.661953,0 -10.294459,-0.15676 -10.294459,-0.34835 0,-0.53949 4.952051,-9.20109 7.032529,-12.30057 22.042432,-32.83857 66.437246,-41.04871 98.300942,-18.1792 2.10511,1.51089 3.91772,2.74709 4.02801,2.74709 0.11034,0 0.20055,-18.64396 0.20055,-41.43102 v -41.43102 h 9.43707 9.43707 l 0.0245,21.06077 0.0245,21.06077 1.12383,-3.80077 c 9.19268,-31.08943 41.67043,-47.444456 71.92861,-36.22154 l 3.35923,1.24597 -3.62478,3.73644 c -2.74053,2.82496 -7.90485,9.18825 -9.12671,11.24563 -0.0469,0.079 -1.65191,-0.17994 -3.56665,-0.57543 -32.36671,-6.68553 -54.98994,32.20658 -35.37256,60.80979 7.656,11.1629 22.40599,17.01968 35.74628,14.19378 1.76184,-0.37322 3.33141,-0.52499 3.48794,-0.33727 0.15652,0.18772 1.29815,1.7914 2.53693,3.56373 1.23881,1.77232 3.97885,5.01595 6.08903,7.20806 l 3.83665,3.98566 -2.58539,0.96733 c -8.65978,3.24004 -20.15509,4.52886 -28.76763,3.22536 z m 63.2974,-0.24562 c -44.69687,-7.9917 -61.10984,-65.62008 -27.78452,-97.5556 26.18272,-25.090796 68.2695,-17.68192 85.06292,14.97431 21.2194,41.26297 -12.93785,90.50929 -57.2784,82.58129 z m 19.65391,-19.38371 c 33.08455,-11.44034 33.49466,-61.06411 0.60124,-72.75116 -34.27196,-12.17682 -62.10625,32.76948 -38.03925,61.42509 5.88575,7.00793 11.61886,10.34757 21.92718,12.77302 3.00101,0.70612 11.60571,-0.0965 15.51083,-1.44695 z M 29.593435,181.15747 c 0,-0.20399 7.920702,-16.72218 16.805789,-35.04755 1.96415,-4.05103 4.967585,-10.26569 6.674299,-13.81034 1.706715,-3.54465 4.984566,-10.32898 7.284114,-15.07629 l 4.180997,-8.63146 h 9.248641 9.248641 l 10.13807,20.60042 c 18.030324,36.63743 22.179204,45.24666 21.926544,45.49932 -0.13637,0.13638 -1.87495,-0.5675 -3.86337,-1.56431 -4.6789,-2.34555 -9.29657,-3.99828 -15.584261,-5.57782 -4.566619,-1.14718 -5.128844,-1.40336 -5.726371,-2.60925 -1.656104,-3.34223 -10.93123,-23.07921 -13.233313,-28.15977 -2.793357,-6.16481 -3.169084,-6.6709 -3.774423,-5.08398 -0.223109,0.58491 -2.312827,5.20659 -4.643802,10.27038 -13.509839,29.34866 -11.512157,25.93941 -16.076853,27.43671 -4.429448,1.45292 -13.492051,5.9598 -18.001255,8.95211 -4.857495,3.22342 -4.603447,3.0688 -4.603447,2.80183 z" />
</svg>
